<?xml version="1.0" encoding="UTF-8"?><svg id="top" version="1.1" xmlns="http://www.w3.org/2000/svg" xmlns:xlink="http://www.w3.org/1999/xlink" xmlns:ev="http://www.w3.org/2001/xml-events" width="689.858pt" height="527.643pt" zoomAndPan="magnify" preserveAspectRatio="xMinYMin" onload="createPlot()" viewBox="0 0 689.858 527.643">
   <defs id="definitions">
   <filter id="Shadow" filterUnits="userSpaceOnUse">
    <feGaussianBlur in="SourceAlpha" stdDeviation="4" result="blur"/>
    <feOffset in="blur" dx="4" dy="4" result="offsetBlurredAlpha"/>
    <feMerge>
     <feMergeNode in="offsetBlurredAlpha"/>
     <feMergeNode in="SourceGraphic"/>
    </feMerge> 
   </filter>    
    <filter id="Correlation1" x="-20%" y="-20%" width="140%" height="140%" filterUnits="objectBoundingBox">
     <feGaussianBlur in="SourceGraphic" stdDeviation="7" result="blur"/>
     <feColorMatrix type="matrix" in="blur" values="0 0 0  5.00 -2.00&#10;               0 0 0 -2.50  2.50&#10;               0 0 0  0.00  0.00&#10;               0 0 0  2.50  0.00"/>
    </filter>    
    <filter id="Correlation2" x="-20%" y="-20%" width="140%" height="140%" filterUnits="objectBoundingBox">
     <feGaussianBlur in="SourceGraphic" stdDeviation="7" result="blur"/>
     <feGaussianBlur in="SourceAlpha" stdDeviation="7" result="opacity"/>
     <feColorMatrix type="matrix" in="blur" result="newcolor" values="0 0 0  5.00 -2.00&#10;               0 0 0 -2.50  2.50&#10;               0 0 0  0.00  0.00&#10;               0 0 0  2.50  0.00"/>
     <feSpecularLighting in="opacity" surfaceScale="5" specularConstant="1" specularExponent="20" lighting-color="white" result="specularOut">
      <feDistantLight azimuth="225" elevation="30"/>
     </feSpecularLighting>
     <feComposite in="newcolor" in2="specularOut" operator="arithmetic" k1="0" k2="1" k3="1" k4="0" result="litPaint"/>
    </filter>
    <pattern id="Sequence" patternUnits="userSpaceOnUse" x="0" y="0" width="5" height="5" viewBox="0 0 5 5">
    </pattern>    
    <pattern id="U_Sequence" patternUnits="userSpaceOnUse" x="0" y="0" width="5" height="5" viewBox="0 0 5 5">
     <line x1="-2.5" x2="5" y1="5" y2="-2.5" style="stroke-width:1.5;stroke:black"/>
     <line x1="0" x2="7.5" y1="7.5" y2="0" style="stroke-width:1.5;stroke:black"/>
    </pattern>    
    <pattern id="D_Sequence" patternUnits="userSpaceOnUse" x="0" y="0" width="5" height="5" viewBox="0 0 5 5">
     <line x1="-2.5" x2="7.5" y1="-2.5" y2="7.5" style="stroke-width:1;stroke:black"/>
     <line x1="-2.5" x2="7.5" y1="7.5" y2="-2.5" style="stroke-width:1;stroke:black"/>
    </pattern>    
    <pattern id="V_Sequence" patternUnits="userSpaceOnUse" x="0" y="0" width="5" height="5" viewBox="0 0 5 5">
     <ellipse cx="2.5" cy="2.5" rx="1.5" ry="0.7" style="fill:black"/>
    </pattern>    
    <pattern id="P_Sequence" patternUnits="userSpaceOnUse" x="0" y="0" width="5" height="5" viewBox="0 0 5 5">
     <circle cx="1.25" cy="3.75" r="1" style="fill:black"/>
     <circle cx="3.75" cy="1.25" r="1" style="fill:black"/>
    </pattern>
    <style type="text/css">
      rect.border { fill:none; stroke:black;stroke-width:1px }
      rect.fillblack { fill:black; stroke:black;stroke-width:1px }
      rect.structure { fill:none; stroke:none }
      rect.structtab { fill:none; stroke:none }
      rect.structclip { fill:white; stroke:none }
      rect.structborder { fill:none; stroke:black; stroke-width:0.5px }
      rect.range3 {fill:none;stroke:black;stroke-width:1px }
      rect.range2 {fill:none;stroke:black;stroke-width:1px }
      rect.range1 {fill:none;stroke:black;stroke-width:1px }
      rect.fillbackground { fill:#000099 }
      rect.fillmodel { fill:none;stroke:black;stroke-width:1px }
      rect.modeldist { fill:none;stroke:black;stroke-width:1px }
      rect.fill { }
      polygon.main { fill:black; stroke:black;stroke-width:0.2px }
      polygon.shadow { fill:none;stroke:black;stroke-width:0.2px }
      polygon.curve { fill:none;stroke:black;stroke-width:1px }
      polygon.normal { fill:none;stroke:black;stroke-width:1px }
      polygon.kdesigma { fill:lightgrey; stroke:grey;stroke-width:0px;fill-opacity:0.2 }
      polygon.modeldist { fill:url(#U_Sequence);stroke:black;stroke-width:1px }
      polyline.datacurve { fill:none; stroke:black;stroke-width:1px }
      polyline.range { fill:none; stroke:black; stroke-width:1px; stroke-linejoin:round }
      polyline.ensemble { fill:none; stroke:black; stroke-width:0.5px;stroke-opacity:0.2 }
      polyline.kdemean { fill:none; stroke:black; stroke-width:1px }
      path.model3 { fill:none;stroke:black;stroke-width:1px }
      path.model2 { fill:none;stroke:black;stroke-width:1px }
      path.model1 { fill:none;stroke:black;stroke-width:1px }
      g.curve { fill:none;stroke:black;stroke-width:1px }
      line.majorpip { stroke:black; stroke-width:1px }
      line.minorpip { stroke:black; stroke-width:0.5px }
      line.gridline { stroke:black; stroke-width:0.5px }
      line.majorpip2 { stroke:white; stroke-width:1px }
      line.minorpip2 { stroke:white; stroke-width:0.5px }
      line.gridline2 { stroke:white; stroke-width:0.5px }
      line.okline { stroke:black; stroke-width:1px }
      line.errorline { stroke:black; stroke-width:1px }
      line.range { stroke:black; stroke-width:1px }
      line.modelline { stroke:black; stroke-width:1px }
      line.constrshadow { stroke:none; stroke-width:2px }
      line.constrok { stroke:black; stroke-width:1px }
      line.constrerror { stroke:black; stroke-width:1px }
      line.curve { stroke:black;stroke-width:1px }
      text { fill:black; stroke:none; font-size:10pt; font-family:"Arial","Helvetica"; font-style:normal }
    </style>
   <clipPath id="clip1"><rect x="0" width="651.54" y="0" height="450.99"/></clipPath><clipPath id="clip2"><rect x="0" width="651.54" y="0" height="450.99"/></clipPath></defs>
    <g id="mainframe"><rect style="fill:white" x="-68.99" y="-52.76" width="827.83" height="633.17" stroke="none"/><g id="mainviewport" transform="translate(0 0)"><rect class="border" x="19.16" width="651.54" y="19.16" height="450.99"/><g id="tabarea" transform="translate(19.16 19.16)"/><g id="plotarea" transform="translate(19.16 19.16)"><g id="structarea" transform="translate(0 0)"><g clip-path="url(#clip1)"><polyline class="range" points="13.03,16.34&#10;6.52,16.34&#10;6.52,42.48&#10;13.03,42.48"/><polyline class="range" points="13.03,49.02&#10;6.52,49.02&#10;6.52,75.17&#10;13.03,75.17"/><polyline class="range" points="13.03,81.7&#10;6.52,81.7&#10;6.52,107.85&#10;13.03,107.85"/><polyline class="range" points="13.03,114.38&#10;6.52,114.38&#10;6.52,140.53&#10;13.03,140.53"/><polyline class="range" points="13.03,147.06&#10;6.52,147.06&#10;6.52,173.21&#10;13.03,173.21"/><polyline class="range" points="13.03,179.74&#10;6.52,179.74&#10;6.52,205.89&#10;13.03,205.89"/><polyline class="range" points="13.03,212.42&#10;6.52,212.42&#10;6.52,238.57&#10;13.03,238.57"/><polyline class="range" points="13.03,245.1&#10;6.52,245.1&#10;6.52,271.25&#10;13.03,271.25"/><polyline class="range" points="13.03,277.78&#10;6.52,277.78&#10;6.52,303.93&#10;13.03,303.93"/><polyline class="range" points="13.03,310.46&#10;6.52,310.46&#10;6.52,336.61&#10;13.03,336.61"/><polyline class="range" points="13.03,343.14&#10;6.52,343.14&#10;6.52,369.29&#10;13.03,369.29"/><polyline class="range" points="13.03,375.83&#10;6.52,375.83&#10;6.52,401.97&#10;13.03,401.97"/><polyline class="range" points="13.03,408.51&#10;6.52,408.51&#10;6.52,434.65&#10;13.03,434.65"/></g></g><g clip-path="url(#clip2)"><g id="itemarea1" transform="translate(0 -10.27)"><polygon class="main" points="189.88,39.68&#10;189.88,39.68&#10;190.75,39.68&#10;191.61,39.68&#10;192.48,39.68&#10;193.35,39.68&#10;194.21,39.68&#10;195.08,39.68&#10;195.95,39.67&#10;196.81,39.67&#10;197.68,39.67&#10;198.55,39.68&#10;199.41,39.68&#10;200.28,39.68&#10;201.15,39.68&#10;202.01,39.68&#10;202.88,39.68&#10;203.75,39.68&#10;204.61,39.68&#10;205.48,39.68&#10;206.35,39.68&#10;207.21,39.68&#10;208.08,39.67&#10;208.95,39.68&#10;209.81,39.68&#10;210.68,39.66&#10;211.55,39.51&#10;212.41,39.11&#10;213.28,38.53&#10;214.15,38.14&#10;215.01,38.01&#10;215.88,38&#10;216.75,37.94&#10;217.61,37.88&#10;218.48,37.9&#10;219.35,38.13&#10;220.21,38.49&#10;221.08,38.53&#10;221.95,38.16&#10;222.81,37.67&#10;223.68,37.29&#10;224.55,37.15&#10;225.41,37.37&#10;226.28,37.76&#10;227.15,38.17&#10;228.01,38.38&#10;228.88,38.39&#10;229.75,38.35&#10;230.61,38.33&#10;231.48,38.13&#10;232.35,37.57&#10;233.21,36.9&#10;234.08,36.49&#10;234.95,36.43&#10;235.81,36.53&#10;236.68,36.81&#10;237.55,36.94&#10;238.41,36.97&#10;239.28,36.88&#10;240.15,36.66&#10;241.01,36.37&#10;241.88,36.19&#10;242.75,36.39&#10;243.61,36.74&#10;244.48,37.2&#10;245.35,37.6&#10;246.21,37.84&#10;247.08,37.76&#10;247.95,37.28&#10;248.81,36.71&#10;249.68,36.37&#10;250.55,36.28&#10;251.41,36.41&#10;252.28,36.68&#10;253.15,36.84&#10;254.01,36.71&#10;254.88,36.45&#10;255.75,36.53&#10;256.61,37.23&#10;257.48,38.41&#10;258.35,39.17&#10;259.21,39.38&#10;260.08,39.4&#10;260.95,39.37&#10;261.81,39.28&#10;262.68,39.09&#10;263.55,38.88&#10;264.41,38.68&#10;265.28,38.57&#10;266.15,38.76&#10;267.01,39.16&#10;267.88,39.38&#10;268.75,39.21&#10;269.61,38.71&#10;270.48,38.18&#10;271.35,37.92&#10;272.21,37.58&#10;273.08,37.2&#10;273.94,37.07&#10;274.81,37.3&#10;275.68,37.84&#10;276.54,38.4&#10;277.41,38.83&#10;278.28,39.1&#10;279.14,39.24&#10;280.01,39.24&#10;280.88,39.18&#10;281.74,39.11&#10;282.61,39.01&#10;283.48,38.89&#10;284.34,38.68&#10;285.21,38.26&#10;286.08,37.36&#10;286.94,36.09&#10;287.81,35.18&#10;288.68,34.8&#10;289.54,34.63&#10;290.41,34.79&#10;291.28,34.93&#10;292.14,34.83&#10;293.01,34.66&#10;293.88,35.18&#10;294.74,35.28&#10;295.61,34.74&#10;296.48,34.69&#10;297.34,34.88&#10;298.21,34.88&#10;299.08,34.87&#10;299.94,35.03&#10;300.81,35.41&#10;301.68,35.93&#10;302.54,36.39&#10;303.41,36.69&#10;304.28,36.86&#10;305.14,36.95&#10;306.01,36.93&#10;306.88,36.82&#10;307.74,36.88&#10;308.61,36.88&#10;309.48,36.83&#10;310.34,36.87&#10;311.21,36.48&#10;312.08,35.48&#10;312.94,33.93&#10;313.81,32.4&#10;314.68,31.77&#10;315.54,32.1&#10;316.41,32.46&#10;317.28,32.43&#10;318.14,32.05&#10;319.01,31.94&#10;319.88,32.84&#10;320.74,33.99&#10;321.61,34.08&#10;322.48,33.23&#10;323.34,32.32&#10;324.21,31.9&#10;325.08,31.78&#10;325.94,31.79&#10;326.81,32.03&#10;327.68,32.32&#10;328.54,32.88&#10;329.41,33.18&#10;330.28,32.78&#10;331.14,31.95&#10;332.01,31.83&#10;332.88,32.42&#10;333.74,32.48&#10;334.61,32.28&#10;335.48,32.41&#10;336.34,33.32&#10;337.21,35.4&#10;338.08,37.33&#10;338.94,38.31&#10;339.81,38.53&#10;340.68,38.19&#10;341.54,37.26&#10;342.41,35.78&#10;343.28,34.71&#10;344.14,34.95&#10;345.01,36.35&#10;345.88,37.92&#10;346.74,38.89&#10;347.61,39.08&#10;348.48,39.12&#10;349.34,39.16&#10;350.21,39.29&#10;351.08,39.33&#10;351.94,39.25&#10;352.81,38.95&#10;353.68,38.83&#10;354.54,39.14&#10;355.41,39.22&#10;356.28,39.3&#10;357.14,39.41&#10;358.01,39.4&#10;358.88,39.14&#10;359.74,38.51&#10;360.61,37.99&#10;361.48,37.95&#10;362.34,37.29&#10;363.21,37.71&#10;364.08,37.83&#10;364.94,38.06&#10;365.81,38.31&#10;366.68,38.73&#10;367.54,38.64&#10;368.41,38.28&#10;369.28,38.06&#10;370.14,38.59&#10;371.01,38.29&#10;371.88,37.51&#10;372.74,36.65&#10;373.61,34.64&#10;374.48,34.07&#10;375.34,35&#10;376.21,33.55&#10;377.08,33.23&#10;377.94,32.04&#10;378.81,31.05&#10;379.68,30.48&#10;380.54,29.97&#10;381.41,29.86&#10;382.27,30.09&#10;383.14,30.43&#10;384.01,30.66&#10;384.87,30.69&#10;385.74,30.57&#10;386.61,30.36&#10;387.47,30.08&#10;388.34,29.82&#10;389.21,29.76&#10;390.07,29.77&#10;390.94,30.01&#10;391.81,30.67&#10;392.67,31.64&#10;393.54,33.19&#10;394.41,34.91&#10;395.27,36.18&#10;396.14,36.98&#10;397.01,37.51&#10;397.87,38.03&#10;398.74,38.64&#10;399.61,39.11&#10;400.47,39.34&#10;401.34,39.52&#10;402.21,39.57&#10;403.07,39.57&#10;403.94,39.55&#10;404.81,39.45&#10;405.67,39.3&#10;406.54,39.01&#10;407.41,38.21&#10;408.27,37.36&#10;409.14,37.59&#10;410.01,38.4&#10;410.87,38.81&#10;411.74,39.03&#10;412.61,39.24&#10;413.47,39.47&#10;414.34,39.56&#10;415.21,39.58&#10;416.07,39.61&#10;416.94,39.64&#10;417.81,39.65&#10;418.67,39.65&#10;419.54,39.67&#10;420.41,39.68&#10;421.27,39.68&#10;422.14,39.68&#10;423.01,39.68&#10;423.87,39.68&#10;424.74,39.68&#10;425.61,39.68&#10;426.47,39.68&#10;427.34,39.68&#10;428.21,39.68&#10;429.07,39.68&#10;429.94,39.68&#10;430.81,39.68&#10;431.67,39.68&#10;432.54,39.68&#10;433.41,39.68&#10;433.41,39.68"/></g><g id="itemarea8" transform="translate(0 22.41)"><polygon class="main" points="209.81,39.68&#10;209.81,39.68&#10;210.68,39.68&#10;211.55,39.68&#10;212.41,39.68&#10;213.28,39.68&#10;214.15,39.68&#10;215.01,39.68&#10;215.88,39.68&#10;216.75,39.68&#10;217.61,39.68&#10;218.48,39.68&#10;219.35,39.68&#10;220.21,39.68&#10;221.08,39.68&#10;221.95,39.68&#10;222.81,39.68&#10;223.68,39.67&#10;224.55,39.67&#10;225.41,39.67&#10;226.28,39.68&#10;227.15,39.68&#10;228.01,39.68&#10;228.88,39.68&#10;229.75,39.68&#10;230.61,39.68&#10;231.48,39.68&#10;232.35,39.68&#10;233.21,39.67&#10;234.08,39.66&#10;234.95,39.65&#10;235.81,39.66&#10;236.68,39.66&#10;237.55,39.67&#10;238.41,39.67&#10;239.28,39.67&#10;240.15,39.66&#10;241.01,39.65&#10;241.88,39.59&#10;242.75,39.44&#10;243.61,39.21&#10;244.48,38.86&#10;245.35,38.42&#10;246.21,38.15&#10;247.08,38.27&#10;247.95,38.79&#10;248.81,39.24&#10;249.68,39.45&#10;250.55,39.5&#10;251.41,39.42&#10;252.28,39.26&#10;253.15,39.14&#10;254.01,39.23&#10;254.88,39.4&#10;255.75,39.35&#10;256.61,38.84&#10;257.48,37.16&#10;258.35,34.51&#10;259.21,32.57&#10;260.08,32.09&#10;260.95,32.63&#10;261.81,33.71&#10;262.68,34.83&#10;263.55,35.78&#10;264.41,36.52&#10;265.28,36.84&#10;266.15,36.29&#10;267.01,34.56&#10;267.88,32.21&#10;268.75,30.8&#10;269.61,30.87&#10;270.48,31.53&#10;271.35,31.9&#10;272.21,32.43&#10;273.08,33.03&#10;273.94,33.22&#10;274.81,32.86&#10;275.68,32.02&#10;276.54,31.2&#10;277.41,30.7&#10;278.28,30.6&#10;279.14,30.63&#10;280.01,30.75&#10;280.88,30.76&#10;281.74,30.61&#10;282.61,30.61&#10;283.48,30.67&#10;284.34,30.9&#10;285.21,31.41&#10;286.08,32.77&#10;286.94,34.76&#10;287.81,36.21&#10;288.68,36.95&#10;289.54,37.43&#10;290.41,37.5&#10;291.28,37.43&#10;292.14,37.44&#10;293.01,37.22&#10;293.88,36.21&#10;294.74,36.04&#10;295.61,37.02&#10;296.48,37.51&#10;297.34,37.46&#10;298.21,37.46&#10;299.08,37.47&#10;299.94,37.37&#10;300.81,37.01&#10;301.68,36.33&#10;302.54,35.58&#10;303.41,34.97&#10;304.28,34.27&#10;305.14,33.47&#10;306.01,32.89&#10;306.88,32.68&#10;307.74,32.82&#10;308.61,33.03&#10;309.48,32.86&#10;310.34,32.01&#10;311.21,30.78&#10;312.08,29.76&#10;312.94,29.93&#10;313.81,31.47&#10;314.68,33.89&#10;315.54,35.66&#10;316.41,36.52&#10;317.28,36.47&#10;318.14,35.46&#10;319.01,33.3&#10;319.88,30.95&#10;320.74,30&#10;321.61,29.95&#10;322.48,30.48&#10;323.34,31.91&#10;324.21,33.21&#10;325.08,33.78&#10;325.94,33.6&#10;326.81,32.81&#10;327.68,31.62&#10;328.54,30.69&#10;329.41,30.43&#10;330.28,30.92&#10;331.14,32.67&#10;332.01,35.04&#10;332.88,36.44&#10;333.74,36.68&#10;334.61,36.3&#10;335.48,36.43&#10;336.34,37.71&#10;337.21,38.95&#10;338.08,39.44&#10;338.94,39.59&#10;339.81,39.61&#10;340.68,39.57&#10;341.54,39.43&#10;342.41,39.08&#10;343.28,38.68&#10;344.14,38.85&#10;345.01,39.3&#10;345.88,39.56&#10;346.74,39.65&#10;347.61,39.66&#10;348.48,39.66&#10;349.34,39.66&#10;350.21,39.67&#10;351.08,39.67&#10;351.94,39.67&#10;352.81,39.65&#10;353.68,39.65&#10;354.54,39.66&#10;355.41,39.67&#10;356.28,39.67&#10;357.14,39.68&#10;358.01,39.68&#10;358.88,39.68&#10;359.74,39.68&#10;360.61,39.68&#10;361.48,39.68&#10;362.34,39.68&#10;363.21,39.68&#10;364.08,39.68&#10;364.94,39.68&#10;365.81,39.68&#10;366.68,39.68&#10;367.54,39.68&#10;368.41,39.68&#10;369.28,39.68&#10;370.14,39.68&#10;371.01,39.68&#10;371.88,39.68&#10;372.74,39.68&#10;373.61,39.68&#10;373.61,39.68"/></g><g id="itemarea11" transform="translate(0 55.1)"><polygon class="main" points="139.62,39.67&#10;139.62,39.67&#10;140.48,39.67&#10;141.35,39.67&#10;142.22,39.67&#10;143.08,39.67&#10;143.95,39.67&#10;144.82,39.67&#10;145.68,39.67&#10;146.55,39.67&#10;147.42,39.67&#10;148.28,39.67&#10;149.15,39.67&#10;150.02,39.67&#10;150.88,39.67&#10;151.75,39.67&#10;152.62,39.67&#10;153.48,39.67&#10;154.35,39.67&#10;155.22,39.67&#10;156.08,39.67&#10;156.95,39.67&#10;157.82,39.67&#10;158.68,39.67&#10;159.55,39.67&#10;160.42,39.67&#10;161.28,39.67&#10;162.15,39.67&#10;163.01,39.67&#10;163.88,39.67&#10;164.75,39.67&#10;165.61,39.67&#10;166.48,39.67&#10;167.35,39.67&#10;168.21,39.67&#10;169.08,39.67&#10;169.95,39.67&#10;170.81,39.67&#10;171.68,39.67&#10;172.55,39.67&#10;173.41,39.67&#10;174.28,39.67&#10;175.15,39.67&#10;176.01,39.67&#10;176.88,39.67&#10;177.75,39.67&#10;178.61,39.67&#10;179.48,39.67&#10;180.35,39.67&#10;181.21,39.67&#10;182.08,39.67&#10;182.95,39.67&#10;183.81,39.67&#10;184.68,39.67&#10;185.55,39.67&#10;186.41,39.67&#10;187.28,39.67&#10;188.15,39.67&#10;189.01,39.67&#10;189.88,39.67&#10;190.75,39.67&#10;191.61,39.67&#10;192.48,39.67&#10;193.35,39.67&#10;194.21,39.67&#10;195.08,39.67&#10;195.95,39.67&#10;196.81,39.67&#10;197.68,39.67&#10;198.55,39.67&#10;199.41,39.67&#10;200.28,39.67&#10;201.15,39.67&#10;202.01,39.67&#10;202.88,39.67&#10;203.75,39.67&#10;204.61,39.67&#10;205.48,39.67&#10;206.35,39.67&#10;207.21,39.67&#10;208.08,39.67&#10;208.95,39.67&#10;209.81,39.67&#10;210.68,39.67&#10;211.55,39.67&#10;212.41,39.67&#10;213.28,39.66&#10;214.15,39.66&#10;215.01,39.66&#10;215.88,39.66&#10;216.75,39.66&#10;217.61,39.65&#10;218.48,39.65&#10;219.35,39.66&#10;220.21,39.66&#10;221.08,39.66&#10;221.95,39.66&#10;222.81,39.65&#10;223.68,39.64&#10;224.55,39.64&#10;225.41,39.64&#10;226.28,39.65&#10;227.15,39.66&#10;228.01,39.66&#10;228.88,39.66&#10;229.75,39.66&#10;230.61,39.66&#10;231.48,39.66&#10;232.35,39.65&#10;233.21,39.63&#10;234.08,39.61&#10;234.95,39.6&#10;235.81,39.61&#10;236.68,39.62&#10;237.55,39.63&#10;238.41,39.63&#10;239.28,39.63&#10;240.15,39.62&#10;241.01,39.59&#10;241.88,39.54&#10;242.75,39.45&#10;243.61,39.36&#10;244.48,39.28&#10;245.35,39.23&#10;246.21,39.2&#10;247.08,39.21&#10;247.95,39.27&#10;248.81,39.37&#10;249.68,39.45&#10;250.55,39.48&#10;251.41,39.44&#10;252.28,39.37&#10;253.15,39.34&#10;254.01,39.37&#10;254.88,39.43&#10;255.75,39.41&#10;256.61,39.28&#10;257.48,39.17&#10;258.35,39.23&#10;259.21,39.31&#10;260.08,39.33&#10;260.95,39.31&#10;261.81,39.26&#10;262.68,39.22&#10;263.55,39.19&#10;264.41,39.17&#10;265.28,39.16&#10;266.15,39.17&#10;267.01,39.23&#10;267.88,39.32&#10;268.75,39.36&#10;269.61,39.32&#10;270.48,39.26&#10;271.35,39.23&#10;272.21,39.18&#10;273.08,39.11&#10;273.94,39.09&#10;274.81,39.13&#10;275.68,39.21&#10;276.54,39.29&#10;277.41,39.34&#10;278.28,39.36&#10;279.14,39.37&#10;280.01,39.36&#10;280.88,39.36&#10;281.74,39.36&#10;282.61,39.35&#10;283.48,39.34&#10;284.34,39.32&#10;285.21,39.27&#10;286.08,39.14&#10;286.94,38.89&#10;287.81,38.58&#10;288.68,38.28&#10;289.54,37.95&#10;290.41,37.61&#10;291.28,37.44&#10;292.14,37.61&#10;293.01,38.16&#10;293.88,38.58&#10;294.74,38.63&#10;295.61,38.28&#10;296.48,37.77&#10;297.34,37.5&#10;298.21,37.5&#10;299.08,37.51&#10;299.94,37.35&#10;300.81,37.01&#10;301.68,36.59&#10;302.54,36.2&#10;303.41,35.92&#10;304.28,35.63&#10;305.14,35.27&#10;306.01,34.98&#10;306.88,34.84&#10;307.74,34.93&#10;308.61,35.03&#10;309.48,34.93&#10;310.34,34.52&#10;311.21,33.74&#10;312.08,32.59&#10;312.94,31.3&#10;313.81,30.21&#10;314.68,29.78&#10;315.54,29.84&#10;316.41,29.94&#10;317.28,29.93&#10;318.14,29.82&#10;319.01,29.89&#10;319.88,30.51&#10;320.74,31.36&#10;321.61,31.43&#10;322.48,30.78&#10;323.34,30.16&#10;324.21,29.87&#10;325.08,29.79&#10;325.94,29.8&#10;326.81,29.96&#10;327.68,30.16&#10;328.54,30.53&#10;329.41,30.74&#10;330.28,30.47&#10;331.14,29.92&#10;332.01,29.76&#10;332.88,29.92&#10;333.74,29.94&#10;334.61,29.88&#10;335.48,29.92&#10;336.34,30.21&#10;337.21,30.97&#10;338.08,31.88&#10;338.94,32.48&#10;339.81,32.64&#10;340.68,32.42&#10;341.54,31.85&#10;342.41,31.13&#10;343.28,30.69&#10;344.14,30.77&#10;345.01,31.34&#10;345.88,32.16&#10;346.74,32.87&#10;347.61,33.08&#10;348.48,33.12&#10;349.34,33.17&#10;350.21,33.35&#10;351.08,33.41&#10;351.94,33.28&#10;352.81,32.92&#10;353.68,32.8&#10;354.54,33.13&#10;355.41,33.23&#10;356.28,33.36&#10;357.14,33.62&#10;358.01,34.11&#10;358.88,34.56&#10;359.74,35.07&#10;360.61,35.35&#10;361.48,35.37&#10;362.34,35.65&#10;363.21,35.48&#10;364.08,35.42&#10;364.94,35.32&#10;365.81,35.19&#10;366.68,34.92&#10;367.54,34.99&#10;368.41,35.21&#10;369.28,35.32&#10;370.14,35.02&#10;371.01,35.2&#10;371.88,35.56&#10;372.74,35.88&#10;373.61,36.5&#10;374.48,36.66&#10;375.34,36.4&#10;376.21,36.82&#10;377.08,36.91&#10;377.94,37.33&#10;378.81,37.87&#10;379.68,38.3&#10;380.54,38.59&#10;381.41,38.67&#10;382.27,38.53&#10;383.14,38.31&#10;384.01,38.16&#10;384.87,38.14&#10;385.74,38.22&#10;386.61,38.36&#10;387.47,38.53&#10;388.34,38.69&#10;389.21,38.83&#10;390.07,38.95&#10;390.94,39.05&#10;391.81,39.14&#10;392.67,39.25&#10;393.54,39.36&#10;394.41,39.45&#10;395.27,39.5&#10;396.14,39.53&#10;397.01,39.55&#10;397.87,39.57&#10;398.74,39.59&#10;399.61,39.62&#10;400.47,39.63&#10;401.34,39.64&#10;402.21,39.65&#10;403.07,39.65&#10;403.94,39.65&#10;404.81,39.64&#10;405.67,39.63&#10;406.54,39.61&#10;407.41,39.58&#10;408.27,39.54&#10;409.14,39.55&#10;410.01,39.58&#10;410.87,39.6&#10;411.74,39.61&#10;412.61,39.62&#10;413.47,39.64&#10;414.34,39.65&#10;415.21,39.65&#10;416.07,39.65&#10;416.94,39.65&#10;417.81,39.66&#10;418.67,39.66&#10;419.54,39.66&#10;420.41,39.66&#10;421.27,39.65&#10;422.14,39.65&#10;423.01,39.65&#10;423.87,39.66&#10;424.74,39.66&#10;425.61,39.66&#10;426.47,39.65&#10;427.34,39.64&#10;428.21,39.61&#10;429.07,39.56&#10;429.94,39.53&#10;430.81,39.51&#10;431.67,39.47&#10;432.54,39.41&#10;433.41,39.36&#10;434.27,39.36&#10;435.14,39.42&#10;436.01,39.49&#10;436.87,39.51&#10;437.74,39.46&#10;438.61,39.37&#10;439.47,39.32&#10;440.34,39.4&#10;441.21,39.51&#10;442.07,39.55&#10;442.94,39.49&#10;443.81,39.36&#10;444.67,39.21&#10;445.54,39.11&#10;446.41,39.05&#10;447.27,39.02&#10;448.14,39.02&#10;449.01,39.03&#10;449.87,39.05&#10;450.74,39.06&#10;451.61,39.04&#10;452.47,39.02&#10;453.34,39.03&#10;454.21,39.05&#10;455.07,39.06&#10;455.94,39.04&#10;456.81,39&#10;457.67,39.04&#10;458.54,39.1&#10;459.41,39.09&#10;460.27,39.05&#10;461.14,39.03&#10;462.01,39.03&#10;462.87,39.08&#10;463.74,39.2&#10;464.61,39.32&#10;465.47,39.36&#10;466.34,39.37&#10;467.21,39.36&#10;468.07,39.37&#10;468.94,39.38&#10;469.81,39.38&#10;470.67,39.37&#10;471.54,39.36&#10;472.41,39.35&#10;473.27,39.37&#10;474.14,39.38&#10;475.01,39.38&#10;475.87,39.37&#10;476.74,39.38&#10;477.61,39.36&#10;478.47,39.31&#10;479.34,39.26&#10;480.21,39.22&#10;481.07,39.2&#10;481.94,39.17&#10;482.81,39.13&#10;483.67,39.15&#10;484.54,39.2&#10;485.41,39.22&#10;486.27,39.2&#10;487.14,39.17&#10;488.01,39.15&#10;488.87,39.14&#10;489.74,39.13&#10;490.6,39.12&#10;491.47,39.12&#10;492.34,39.12&#10;493.2,39.13&#10;494.07,39.15&#10;494.94,39.24&#10;495.8,39.33&#10;496.67,39.37&#10;497.54,39.44&#10;498.4,39.52&#10;499.27,39.63&#10;500.14,39.67&#10;501,39.67&#10;501.87,39.67&#10;502.74,39.67&#10;503.6,39.67&#10;504.47,39.67&#10;505.34,39.67&#10;506.2,39.67&#10;507.07,39.67&#10;507.94,39.67&#10;507.94,39.67"/></g><g id="itemarea114" transform="translate(0 87.78)"><polygon class="main" points="267.01,39.67&#10;267.01,39.67&#10;267.88,39.67&#10;268.75,39.67&#10;269.61,39.67&#10;270.48,39.67&#10;271.35,39.67&#10;272.21,39.67&#10;273.08,39.67&#10;273.94,39.67&#10;274.81,39.67&#10;275.68,39.67&#10;276.54,39.67&#10;277.41,39.67&#10;278.28,39.67&#10;279.14,39.67&#10;280.01,39.67&#10;280.88,39.67&#10;281.74,39.67&#10;282.61,39.67&#10;283.48,39.67&#10;284.34,39.67&#10;285.21,39.67&#10;286.08,39.67&#10;286.94,39.67&#10;287.81,39.67&#10;288.68,39.67&#10;289.54,39.67&#10;290.41,39.66&#10;291.28,39.66&#10;292.14,39.66&#10;293.01,39.67&#10;293.88,39.67&#10;294.74,39.67&#10;295.61,39.67&#10;296.48,39.67&#10;297.34,39.66&#10;298.21,39.66&#10;299.08,39.66&#10;299.94,39.65&#10;300.81,39.64&#10;301.68,39.62&#10;302.54,39.59&#10;303.41,39.56&#10;304.28,39.52&#10;305.14,39.47&#10;306.01,39.42&#10;306.88,39.39&#10;307.74,39.41&#10;308.61,39.42&#10;309.48,39.4&#10;310.34,39.34&#10;311.21,39.2&#10;312.08,38.98&#10;312.94,38.77&#10;313.81,38.68&#10;314.68,38.81&#10;315.54,39&#10;316.41,39.11&#10;317.28,39.1&#10;318.14,38.98&#10;319.01,38.78&#10;319.88,38.7&#10;320.74,38.79&#10;321.61,38.8&#10;322.48,38.72&#10;323.34,38.71&#10;324.21,38.77&#10;325.08,38.8&#10;325.94,38.79&#10;326.81,38.75&#10;327.68,38.69&#10;328.54,38.68&#10;329.41,38.71&#10;330.28,38.69&#10;331.14,38.73&#10;332.01,38.92&#10;332.88,39.1&#10;333.74,39.13&#10;334.61,39.08&#10;335.48,39.1&#10;336.34,39.28&#10;337.21,39.46&#10;338.08,39.45&#10;338.94,39.35&#10;339.81,39.31&#10;340.68,39.35&#10;341.54,39.46&#10;342.41,39.48&#10;343.28,39.43&#10;344.14,39.46&#10;345.01,39.51&#10;345.88,39.45&#10;346.74,39.27&#10;347.61,39.18&#10;348.48,39.16&#10;349.34,39.14&#10;350.21,39.05&#10;351.08,39.02&#10;351.94,39.09&#10;352.81,39.26&#10;353.68,39.3&#10;354.54,39.17&#10;355.41,39.11&#10;356.28,39.04&#10;357.14,38.89&#10;358.01,38.62&#10;358.88,38.49&#10;359.74,38.5&#10;360.61,38.53&#10;361.48,38.54&#10;362.34,38.56&#10;363.21,38.55&#10;364.08,38.54&#10;364.94,38.53&#10;365.81,38.51&#10;366.68,38.49&#10;367.54,38.49&#10;368.41,38.52&#10;369.28,38.53&#10;370.14,38.49&#10;371.01,38.52&#10;371.88,38.55&#10;372.74,38.55&#10;373.61,38.33&#10;374.48,38.22&#10;375.34,38.39&#10;376.21,38.09&#10;377.08,38&#10;377.94,37.53&#10;378.81,36.86&#10;379.68,36.43&#10;380.54,36.37&#10;381.41,36.42&#10;382.27,36.4&#10;383.14,36.46&#10;384.01,36.58&#10;384.87,36.59&#10;385.74,36.54&#10;386.61,36.43&#10;387.47,36.38&#10;388.34,36.44&#10;389.21,36.62&#10;390.07,36.81&#10;390.94,37.05&#10;391.81,37.33&#10;392.67,37.67&#10;393.54,38.05&#10;394.41,38.34&#10;395.27,38.53&#10;396.14,38.65&#10;397.01,38.73&#10;397.87,38.83&#10;398.74,38.95&#10;399.61,39.08&#10;400.47,39.18&#10;401.34,39.26&#10;402.21,39.29&#10;403.07,39.29&#10;403.94,39.27&#10;404.81,39.21&#10;405.67,39.14&#10;406.54,39.04&#10;407.41,38.85&#10;408.27,38.7&#10;409.14,38.74&#10;410.01,38.89&#10;410.87,38.98&#10;411.74,39.04&#10;412.61,39.11&#10;413.47,39.22&#10;414.34,39.27&#10;415.21,39.29&#10;416.07,39.32&#10;416.94,39.34&#10;417.81,39.35&#10;418.67,39.35&#10;419.54,39.36&#10;420.41,39.33&#10;421.27,39.26&#10;422.14,39.22&#10;423.01,39.26&#10;423.87,39.31&#10;424.74,39.31&#10;425.61,39.29&#10;426.47,39.25&#10;427.34,39.18&#10;428.21,39.05&#10;429.07,38.94&#10;429.94,38.89&#10;430.81,38.85&#10;431.67,38.79&#10;432.54,38.72&#10;433.41,38.68&#10;434.27,38.69&#10;435.14,38.74&#10;436.01,38.82&#10;436.87,38.84&#10;437.74,38.77&#10;438.61,38.68&#10;439.47,38.64&#10;440.34,38.7&#10;441.21,38.84&#10;442.07,38.89&#10;442.94,38.8&#10;443.81,38.67&#10;444.67,38.59&#10;445.54,38.57&#10;446.41,38.56&#10;447.27,38.55&#10;448.14,38.55&#10;449.01,38.55&#10;449.87,38.56&#10;450.74,38.56&#10;451.61,38.55&#10;452.47,38.55&#10;453.34,38.55&#10;454.21,38.56&#10;455.07,38.56&#10;455.94,38.55&#10;456.81,38.53&#10;457.67,38.43&#10;458.54,38.27&#10;459.41,38.3&#10;460.27,38.41&#10;461.14,38.46&#10;462.01,38.45&#10;462.87,38.34&#10;463.74,37.98&#10;464.61,37.39&#10;465.47,36.99&#10;466.34,36.87&#10;467.21,36.85&#10;468.07,36.75&#10;468.94,36.47&#10;469.81,36.12&#10;470.67,35.78&#10;471.54,35.58&#10;472.41,35.57&#10;473.27,35.8&#10;474.14,36.2&#10;475.01,36.54&#10;475.87,36.57&#10;476.74,36.27&#10;477.61,35.64&#10;478.47,34.94&#10;479.34,34.37&#10;480.21,34.03&#10;481.07,33.77&#10;481.94,33.37&#10;482.81,32.76&#10;483.67,32.17&#10;484.54,31.67&#10;485.41,31.52&#10;486.27,31.7&#10;487.14,31.98&#10;488.01,32.21&#10;488.87,32.35&#10;489.74,32.41&#10;490.6,32.42&#10;491.47,32.41&#10;492.34,32.34&#10;493.2,32.24&#10;494.07,31.99&#10;494.94,31.32&#10;495.8,30.61&#10;496.67,30.3&#10;497.54,29.9&#10;498.4,29.76&#10;499.27,31.74&#10;500.14,35.15&#10;501,36.89&#10;501.87,38.45&#10;502.74,39.05&#10;503.6,39.09&#10;504.47,39.39&#10;505.34,39.58&#10;506.2,39.63&#10;507.07,39.64&#10;507.94,39.65&#10;508.8,39.66&#10;509.67,39.67&#10;510.54,39.67&#10;511.4,39.67&#10;512.27,39.67&#10;513.14,39.67&#10;514,39.67&#10;514.87,39.67&#10;515.74,39.67&#10;516.6,39.67&#10;517.47,39.67&#10;518.34,39.67&#10;519.2,39.67&#10;520.07,39.67&#10;520.94,39.66&#10;521.8,39.64&#10;522.67,39.65&#10;523.54,39.67&#10;524.4,39.67&#10;525.27,39.67&#10;526.14,39.67&#10;527,39.67&#10;527.87,39.67&#10;528.74,39.67&#10;529.6,39.66&#10;530.47,39.66&#10;531.34,39.66&#10;532.2,39.67&#10;533.07,39.66&#10;533.94,39.65&#10;534.8,39.64&#10;535.67,39.65&#10;536.54,39.66&#10;537.4,39.67&#10;538.27,39.67&#10;539.14,39.66&#10;540,39.67&#10;540.87,39.67&#10;541.74,39.67&#10;542.6,39.67&#10;543.47,39.67&#10;544.34,39.67&#10;545.2,39.67&#10;546.07,39.67&#10;546.94,39.67&#10;547.8,39.67&#10;548.67,39.67&#10;549.54,39.67&#10;550.4,39.67&#10;551.27,39.67&#10;552.14,39.67&#10;553,39.67&#10;553.87,39.67&#10;554.74,39.67&#10;555.6,39.67&#10;556.47,39.67&#10;557.34,39.67&#10;558.2,39.67&#10;559.07,39.67&#10;559.94,39.67&#10;560.8,39.67&#10;561.67,39.67&#10;562.54,39.67&#10;563.4,39.67&#10;564.27,39.67&#10;565.14,39.67&#10;566,39.67&#10;566.87,39.67&#10;567.74,39.67&#10;568.6,39.67&#10;569.47,39.67&#10;570.34,39.67&#10;570.34,39.67"/></g><g id="itemarea131" transform="translate(0 120.46)"><polygon class="main" points="256.61,39.67&#10;256.61,39.67&#10;257.48,39.67&#10;258.35,39.67&#10;259.21,39.67&#10;260.08,39.67&#10;260.95,39.67&#10;261.81,39.67&#10;262.68,39.67&#10;263.55,39.67&#10;264.41,39.67&#10;265.28,39.67&#10;266.15,39.67&#10;267.01,39.67&#10;267.88,39.67&#10;268.75,39.67&#10;269.61,39.67&#10;270.48,39.67&#10;271.35,39.67&#10;272.21,39.67&#10;273.08,39.67&#10;273.94,39.67&#10;274.81,39.67&#10;275.68,39.67&#10;276.54,39.67&#10;277.41,39.67&#10;278.28,39.67&#10;279.14,39.67&#10;280.01,39.67&#10;280.88,39.67&#10;281.74,39.67&#10;282.61,39.67&#10;283.48,39.67&#10;284.34,39.67&#10;285.21,39.67&#10;286.08,39.67&#10;286.94,39.67&#10;287.81,39.65&#10;288.68,39.63&#10;289.54,39.61&#10;290.41,39.57&#10;291.28,39.54&#10;292.14,39.57&#10;293.01,39.63&#10;293.88,39.65&#10;294.74,39.66&#10;295.61,39.64&#10;296.48,39.59&#10;297.34,39.55&#10;298.21,39.55&#10;299.08,39.55&#10;299.94,39.53&#10;300.81,39.47&#10;301.68,39.36&#10;302.54,39.25&#10;303.41,39.15&#10;304.28,39.02&#10;305.14,38.83&#10;306.01,38.67&#10;306.88,38.56&#10;307.74,38.63&#10;308.61,38.69&#10;309.48,38.62&#10;310.34,38.4&#10;311.21,37.86&#10;312.08,36.92&#10;312.94,35.44&#10;313.81,33.57&#10;314.68,31.8&#10;315.54,30.75&#10;316.41,30.3&#10;317.28,30.33&#10;318.14,30.86&#10;319.01,32.23&#10;319.88,34.13&#10;320.74,35.47&#10;321.61,35.56&#10;322.48,34.64&#10;323.34,33.27&#10;324.21,32.28&#10;325.08,31.87&#10;325.94,31.99&#10;326.81,32.58&#10;327.68,33.45&#10;328.54,34.28&#10;329.41,34.62&#10;330.28,34.11&#10;331.14,32.63&#10;332.01,31.07&#10;332.88,30.34&#10;333.74,30.2&#10;334.61,30.38&#10;335.48,30.34&#10;336.34,29.82&#10;337.21,30.04&#10;338.08,31.4&#10;338.94,32.65&#10;339.81,33.06&#10;340.68,32.58&#10;341.54,31.34&#10;342.41,30.2&#10;343.28,29.78&#10;344.14,29.76&#10;345.01,30.34&#10;345.88,31.82&#10;346.74,33.56&#10;347.61,34.17&#10;348.48,34.3&#10;349.34,34.45&#10;350.21,34.99&#10;351.08,35.18&#10;351.94,34.78&#10;352.81,33.69&#10;353.68,33.35&#10;354.54,34.3&#10;355.41,34.63&#10;356.28,35.03&#10;357.14,35.86&#10;358.01,37.26&#10;358.88,38.18&#10;359.74,38.86&#10;360.61,39.1&#10;361.48,39.12&#10;362.34,39.29&#10;363.21,39.19&#10;364.08,39.16&#10;364.94,39.08&#10;365.81,38.97&#10;366.68,38.7&#10;367.54,38.77&#10;368.41,38.99&#10;369.28,39.08&#10;370.14,38.81&#10;371.01,38.98&#10;371.88,39.25&#10;372.74,39.4&#10;373.61,39.57&#10;374.48,39.6&#10;375.34,39.55&#10;376.21,39.62&#10;377.08,39.63&#10;377.94,39.65&#10;378.81,39.67&#10;379.68,39.67&#10;380.54,39.67&#10;381.41,39.67&#10;382.27,39.67&#10;383.14,39.67&#10;384.01,39.67&#10;384.87,39.67&#10;385.74,39.67&#10;386.61,39.67&#10;387.47,39.67&#10;388.34,39.67&#10;389.21,39.67&#10;390.07,39.67&#10;390.94,39.67&#10;391.81,39.67&#10;392.67,39.67&#10;393.54,39.67&#10;394.41,39.67&#10;394.41,39.67"/></g><g id="itemarea133" transform="translate(0 153.14)"><polygon class="main" points="312.94,39.67&#10;312.94,39.67&#10;313.81,39.67&#10;314.68,39.67&#10;315.54,39.67&#10;316.41,39.67&#10;317.28,39.67&#10;318.14,39.67&#10;319.01,39.67&#10;319.88,39.67&#10;320.74,39.67&#10;321.61,39.67&#10;322.48,39.67&#10;323.34,39.67&#10;324.21,39.67&#10;325.08,39.67&#10;325.94,39.67&#10;326.81,39.67&#10;327.68,39.67&#10;328.54,39.67&#10;329.41,39.67&#10;330.28,39.67&#10;331.14,39.67&#10;332.01,39.67&#10;332.88,39.67&#10;333.74,39.67&#10;334.61,39.67&#10;335.48,39.67&#10;336.34,39.67&#10;337.21,39.67&#10;338.08,39.65&#10;338.94,39.61&#10;339.81,39.58&#10;340.68,39.6&#10;341.54,39.65&#10;342.41,39.67&#10;343.28,39.67&#10;344.14,39.67&#10;345.01,39.67&#10;345.88,39.66&#10;346.74,39.59&#10;347.61,39.53&#10;348.48,39.52&#10;349.34,39.5&#10;350.21,39.42&#10;351.08,39.38&#10;351.94,39.46&#10;352.81,39.59&#10;353.68,39.61&#10;354.54,39.53&#10;355.41,39.49&#10;356.28,39.41&#10;357.14,39.18&#10;358.01,38.2&#10;358.88,36.53&#10;359.74,34.03&#10;360.61,32.66&#10;361.48,32.57&#10;362.34,31.51&#10;363.21,32.13&#10;364.08,32.34&#10;364.94,32.81&#10;365.81,33.44&#10;366.68,34.76&#10;367.54,34.43&#10;368.41,33.34&#10;369.28,32.81&#10;370.14,34.27&#10;371.01,33.38&#10;371.88,31.8&#10;372.74,30.95&#10;373.61,31.21&#10;374.48,31.65&#10;375.34,31&#10;376.21,32.14&#10;377.08,32.46&#10;377.94,33.55&#10;378.81,33.07&#10;379.68,30.91&#10;380.54,29.78&#10;381.41,29.76&#10;382.27,30.09&#10;383.14,30.91&#10;384.01,31.61&#10;384.87,31.72&#10;385.74,31.35&#10;386.61,30.69&#10;387.47,30.01&#10;388.34,29.76&#10;389.21,30.17&#10;390.07,30.68&#10;390.94,31.52&#10;391.81,32.75&#10;392.67,34.23&#10;393.54,36.04&#10;394.41,37.46&#10;395.27,38.26&#10;396.14,38.74&#10;397.01,38.98&#10;397.87,39.19&#10;398.74,39.41&#10;399.61,39.55&#10;400.47,39.61&#10;401.34,39.65&#10;402.21,39.66&#10;403.07,39.66&#10;403.94,39.66&#10;404.81,39.64&#10;405.67,39.6&#10;406.54,39.53&#10;407.41,39.28&#10;408.27,38.93&#10;409.14,39.03&#10;410.01,39.34&#10;410.87,39.48&#10;411.74,39.54&#10;412.61,39.59&#10;413.47,39.64&#10;414.34,39.66&#10;415.21,39.66&#10;416.07,39.67&#10;416.94,39.67&#10;417.81,39.67&#10;418.67,39.67&#10;419.54,39.67&#10;420.41,39.67&#10;421.27,39.67&#10;422.14,39.67&#10;423.01,39.67&#10;423.87,39.67&#10;424.74,39.67&#10;425.61,39.67&#10;426.47,39.67&#10;427.34,39.67&#10;428.21,39.67&#10;429.07,39.67&#10;429.94,39.67&#10;429.94,39.67"/></g><g id="itemarea136" transform="translate(0 185.82)"><polygon class="main" points="312.08,39.67&#10;312.08,39.67&#10;312.94,39.67&#10;313.81,39.67&#10;314.68,39.67&#10;315.54,39.67&#10;316.41,39.67&#10;317.28,39.67&#10;318.14,39.67&#10;319.01,39.67&#10;319.88,39.67&#10;320.74,39.67&#10;321.61,39.67&#10;322.48,39.67&#10;323.34,39.67&#10;324.21,39.67&#10;325.08,39.67&#10;325.94,39.67&#10;326.81,39.67&#10;327.68,39.67&#10;328.54,39.67&#10;329.41,39.67&#10;330.28,39.67&#10;331.14,39.67&#10;332.01,39.67&#10;332.88,39.67&#10;333.74,39.67&#10;334.61,39.67&#10;335.48,39.67&#10;336.34,39.67&#10;337.21,39.67&#10;338.08,39.66&#10;338.94,39.65&#10;339.81,39.64&#10;340.68,39.64&#10;341.54,39.66&#10;342.41,39.67&#10;343.28,39.67&#10;344.14,39.67&#10;345.01,39.67&#10;345.88,39.66&#10;346.74,39.64&#10;347.61,39.62&#10;348.48,39.62&#10;349.34,39.61&#10;350.21,39.59&#10;351.08,39.58&#10;351.94,39.6&#10;352.81,39.64&#10;353.68,39.64&#10;354.54,39.62&#10;355.41,39.61&#10;356.28,39.59&#10;357.14,39.53&#10;358.01,39.32&#10;358.88,38.97&#10;359.74,38.36&#10;360.61,37.91&#10;361.48,37.87&#10;362.34,37.34&#10;363.21,37.68&#10;364.08,37.78&#10;364.94,37.97&#10;365.81,38.18&#10;366.68,38.56&#10;367.54,38.47&#10;368.41,38.15&#10;369.28,37.97&#10;370.14,38.43&#10;371.01,38.16&#10;371.88,37.51&#10;372.74,36.81&#10;373.61,35.1&#10;374.48,34.55&#10;375.34,35.42&#10;376.21,34&#10;377.08,33.65&#10;377.94,32.04&#10;378.81,30.25&#10;379.68,29.76&#10;380.54,30.1&#10;381.41,30.28&#10;382.27,30.05&#10;383.14,29.87&#10;384.01,29.96&#10;384.87,29.94&#10;385.74,29.93&#10;386.61,29.89&#10;387.47,30.02&#10;388.34,30.35&#10;389.21,30.82&#10;390.07,31.27&#10;390.94,31.77&#10;391.81,32.41&#10;392.67,33.21&#10;393.54,34.25&#10;394.41,35.25&#10;395.27,35.99&#10;396.14,36.46&#10;397.01,36.8&#10;397.87,37.19&#10;398.74,37.7&#10;399.61,38.21&#10;400.47,38.61&#10;401.34,38.95&#10;402.21,39.09&#10;403.07,39.1&#10;403.94,39&#10;404.81,38.75&#10;405.67,38.47&#10;406.54,38.07&#10;407.41,37.29&#10;408.27,36.69&#10;409.14,36.84&#10;410.01,37.44&#10;410.87,37.83&#10;411.74,38.06&#10;412.61,38.35&#10;413.47,38.77&#10;414.34,39&#10;415.21,39.08&#10;416.07,39.18&#10;416.94,39.3&#10;417.81,39.36&#10;418.67,39.39&#10;419.54,39.49&#10;420.41,39.59&#10;421.27,39.64&#10;422.14,39.65&#10;423.01,39.64&#10;423.87,39.61&#10;424.74,39.6&#10;425.61,39.62&#10;426.47,39.64&#10;427.34,39.66&#10;428.21,39.67&#10;429.07,39.67&#10;429.94,39.67&#10;430.81,39.67&#10;431.67,39.67&#10;432.54,39.67&#10;433.41,39.67&#10;434.27,39.67&#10;435.14,39.67&#10;436.01,39.67&#10;436.87,39.67&#10;437.74,39.67&#10;438.61,39.67&#10;439.47,39.67&#10;440.34,39.67&#10;441.21,39.67&#10;442.07,39.67&#10;442.94,39.67&#10;443.81,39.67&#10;444.67,39.67&#10;445.54,39.67&#10;446.41,39.67&#10;447.27,39.67&#10;448.14,39.67&#10;449.01,39.67&#10;449.87,39.67&#10;450.74,39.67&#10;451.61,39.67&#10;452.47,39.67&#10;453.34,39.67&#10;454.21,39.67&#10;455.07,39.67&#10;455.94,39.67&#10;456.81,39.67&#10;457.67,39.67&#10;458.54,39.67&#10;459.41,39.67&#10;460.27,39.67&#10;461.14,39.67&#10;462.01,39.67&#10;462.87,39.67&#10;463.74,39.67&#10;464.61,39.67&#10;465.47,39.67&#10;466.34,39.67&#10;467.21,39.67&#10;468.07,39.67&#10;468.94,39.67&#10;469.81,39.67&#10;470.67,39.66&#10;471.54,39.66&#10;472.41,39.66&#10;473.27,39.66&#10;474.14,39.67&#10;475.01,39.67&#10;475.87,39.67&#10;476.74,39.67&#10;477.61,39.66&#10;478.47,39.66&#10;479.34,39.65&#10;480.21,39.64&#10;481.07,39.64&#10;481.94,39.63&#10;482.81,39.61&#10;483.67,39.58&#10;484.54,39.55&#10;485.41,39.54&#10;486.27,39.55&#10;487.14,39.57&#10;488.01,39.58&#10;488.87,39.59&#10;489.74,39.59&#10;490.6,39.6&#10;491.47,39.6&#10;492.34,39.59&#10;493.2,39.58&#10;494.07,39.57&#10;494.94,39.53&#10;495.8,39.49&#10;496.67,39.47&#10;497.54,39.44&#10;498.4,39.39&#10;499.27,39.29&#10;500.14,39.21&#10;501,39.18&#10;501.87,39.15&#10;502.74,39.15&#10;503.6,39.15&#10;504.47,39.17&#10;505.34,39.23&#10;506.2,39.27&#10;507.07,39.29&#10;507.94,39.32&#10;508.8,39.37&#10;509.67,39.43&#10;510.54,39.45&#10;511.4,39.47&#10;512.27,39.49&#10;513.14,39.49&#10;514,39.51&#10;514.87,39.54&#10;515.74,39.54&#10;516.6,39.5&#10;517.47,39.5&#10;518.34,39.48&#10;519.2,39.44&#10;520.07,39.4&#10;520.94,39.34&#10;521.8,39.29&#10;522.67,39.31&#10;523.54,39.4&#10;524.4,39.53&#10;525.27,39.55&#10;526.14,39.5&#10;527,39.44&#10;527.87,39.4&#10;528.74,39.38&#10;529.6,39.35&#10;530.47,39.35&#10;531.34,39.37&#10;532.2,39.38&#10;533.07,39.36&#10;533.94,39.32&#10;534.8,39.31&#10;535.67,39.32&#10;536.54,39.37&#10;537.4,39.4&#10;538.27,39.39&#10;539.14,39.38&#10;540,39.38&#10;540.87,39.41&#10;541.74,39.43&#10;542.6,39.42&#10;543.47,39.43&#10;544.34,39.48&#10;545.2,39.54&#10;546.07,39.58&#10;546.94,39.57&#10;547.8,39.56&#10;548.67,39.56&#10;549.54,39.58&#10;550.4,39.59&#10;551.27,39.59&#10;552.14,39.59&#10;553,39.58&#10;553.87,39.58&#10;554.74,39.58&#10;555.6,39.59&#10;556.47,39.6&#10;557.34,39.6&#10;558.2,39.6&#10;559.07,39.61&#10;559.94,39.62&#10;560.8,39.62&#10;561.67,39.62&#10;562.54,39.61&#10;563.4,39.6&#10;564.27,39.6&#10;565.14,39.6&#10;566,39.61&#10;566.87,39.62&#10;567.74,39.64&#10;568.6,39.65&#10;569.47,39.67&#10;570.34,39.67&#10;571.2,39.67&#10;572.07,39.67&#10;572.94,39.67&#10;573.8,39.67&#10;574.67,39.67&#10;575.54,39.67&#10;576.4,39.67&#10;577.27,39.67&#10;578.14,39.67&#10;579,39.67&#10;579.87,39.67&#10;580.74,39.67&#10;581.6,39.67&#10;582.47,39.67&#10;583.34,39.67&#10;584.2,39.67&#10;585.07,39.67&#10;585.94,39.67&#10;586.8,39.67&#10;587.67,39.67&#10;588.54,39.67&#10;589.4,39.67&#10;590.27,39.67&#10;591.14,39.67&#10;592,39.67&#10;592.87,39.67&#10;593.74,39.67&#10;594.6,39.67&#10;595.47,39.67&#10;596.34,39.67&#10;597.2,39.67&#10;598.07,39.67&#10;598.93,39.67&#10;599.8,39.67&#10;600.67,39.67&#10;601.53,39.67&#10;602.4,39.67&#10;603.27,39.67&#10;604.13,39.67&#10;605,39.67&#10;605,39.67"/></g><g id="itemarea151" transform="translate(0 218.5)"><polygon class="main" points="335.48,39.67&#10;335.48,39.67&#10;336.34,39.67&#10;337.21,39.67&#10;338.08,39.67&#10;338.94,39.67&#10;339.81,39.67&#10;340.68,39.67&#10;341.54,39.67&#10;342.41,39.67&#10;343.28,39.67&#10;344.14,39.67&#10;345.01,39.67&#10;345.88,39.67&#10;346.74,39.67&#10;347.61,39.67&#10;348.48,39.67&#10;349.34,39.67&#10;350.21,39.67&#10;351.08,39.67&#10;351.94,39.67&#10;352.81,39.67&#10;353.68,39.67&#10;354.54,39.67&#10;355.41,39.67&#10;356.28,39.67&#10;357.14,39.67&#10;358.01,39.66&#10;358.88,39.63&#10;359.74,39.5&#10;360.61,39.34&#10;361.48,39.32&#10;362.34,39.05&#10;363.21,39.23&#10;364.08,39.28&#10;364.94,39.36&#10;365.81,39.44&#10;366.68,39.55&#10;367.54,39.53&#10;368.41,39.43&#10;369.28,39.36&#10;370.14,39.51&#10;371.01,39.43&#10;371.88,39.15&#10;372.74,38.72&#10;373.61,37.13&#10;374.48,36.49&#10;375.34,37.48&#10;376.21,35.79&#10;377.08,35.3&#10;377.94,32.89&#10;378.81,29.99&#10;379.68,29.76&#10;380.54,31.36&#10;381.41,32.01&#10;382.27,31.07&#10;383.14,30.09&#10;384.01,29.95&#10;384.87,29.84&#10;385.74,30.01&#10;386.61,30.25&#10;387.47,31&#10;388.34,32.24&#10;389.21,33.59&#10;390.07,34.82&#10;390.94,35.88&#10;391.81,36.85&#10;392.67,37.86&#10;393.54,38.76&#10;394.41,39.24&#10;395.27,39.44&#10;396.14,39.55&#10;397.01,39.59&#10;397.87,39.62&#10;398.74,39.65&#10;399.61,39.67&#10;400.47,39.67&#10;401.34,39.67&#10;402.21,39.67&#10;403.07,39.67&#10;403.94,39.67&#10;404.81,39.67&#10;405.67,39.67&#10;406.54,39.66&#10;407.41,39.64&#10;408.27,39.59&#10;409.14,39.6&#10;410.01,39.64&#10;410.87,39.66&#10;411.74,39.67&#10;412.61,39.67&#10;413.47,39.67&#10;414.34,39.67&#10;415.21,39.67&#10;416.07,39.67&#10;416.94,39.67&#10;417.81,39.67&#10;418.67,39.67&#10;419.54,39.67&#10;420.41,39.67&#10;421.27,39.67&#10;422.14,39.67&#10;422.14,39.67"/></g><g id="itemarea153" transform="translate(0 251.18)"><polygon class="main" points="346.74,39.67&#10;346.74,39.67&#10;347.61,39.67&#10;348.48,39.67&#10;349.34,39.67&#10;350.21,39.67&#10;351.08,39.67&#10;351.94,39.67&#10;352.81,39.67&#10;353.68,39.67&#10;354.54,39.67&#10;355.41,39.67&#10;356.28,39.67&#10;357.14,39.67&#10;358.01,39.67&#10;358.88,39.67&#10;359.74,39.65&#10;360.61,39.61&#10;361.48,39.6&#10;362.34,39.51&#10;363.21,39.57&#10;364.08,39.59&#10;364.94,39.61&#10;365.81,39.63&#10;366.68,39.66&#10;367.54,39.65&#10;368.41,39.63&#10;369.28,39.61&#10;370.14,39.65&#10;371.01,39.63&#10;371.88,39.55&#10;372.74,39.38&#10;373.61,38.5&#10;374.48,38.05&#10;375.34,38.72&#10;376.21,37.51&#10;377.08,37.11&#10;377.94,34.72&#10;378.81,30.93&#10;379.68,29.76&#10;380.54,31.21&#10;381.41,31.91&#10;382.27,30.97&#10;383.14,30.16&#10;384.01,30.28&#10;384.87,30.19&#10;385.74,30.24&#10;386.61,30.26&#10;387.47,30.87&#10;388.34,32.17&#10;389.21,33.65&#10;390.07,34.99&#10;390.94,36.16&#10;391.81,37.16&#10;392.67,38.17&#10;393.54,39.01&#10;394.41,39.4&#10;395.27,39.54&#10;396.14,39.62&#10;397.01,39.64&#10;397.87,39.65&#10;398.74,39.67&#10;399.61,39.67&#10;400.47,39.67&#10;401.34,39.67&#10;402.21,39.67&#10;403.07,39.67&#10;403.94,39.67&#10;404.81,39.67&#10;405.67,39.67&#10;406.54,39.67&#10;407.41,39.66&#10;408.27,39.64&#10;409.14,39.65&#10;410.01,39.67&#10;410.87,39.67&#10;411.74,39.67&#10;412.61,39.67&#10;413.47,39.67&#10;414.34,39.67&#10;415.21,39.67&#10;416.07,39.67&#10;416.94,39.67&#10;417.81,39.67&#10;418.67,39.67&#10;419.54,39.67&#10;419.54,39.67"/></g><g id="itemarea155" transform="translate(0 283.86)"><polygon class="main" points="355.41,39.67&#10;355.41,39.67&#10;356.28,39.67&#10;357.14,39.67&#10;358.01,39.67&#10;358.88,39.67&#10;359.74,39.67&#10;360.61,39.67&#10;361.48,39.67&#10;362.34,39.66&#10;363.21,39.66&#10;364.08,39.67&#10;364.94,39.67&#10;365.81,39.67&#10;366.68,39.67&#10;367.54,39.67&#10;368.41,39.67&#10;369.28,39.67&#10;370.14,39.67&#10;371.01,39.67&#10;371.88,39.66&#10;372.74,39.64&#10;373.61,39.52&#10;374.48,39.44&#10;375.34,39.55&#10;376.21,39.33&#10;377.08,39.25&#10;377.94,38.57&#10;378.81,36.53&#10;379.68,33.45&#10;380.54,31.11&#10;381.41,30.66&#10;382.27,31.66&#10;383.14,33.31&#10;384.01,34.41&#10;384.87,34.59&#10;385.74,34&#10;386.61,32.92&#10;387.47,31.61&#10;388.34,30.5&#10;389.21,30.04&#10;390.07,29.76&#10;390.94,29.97&#10;391.81,30.79&#10;392.67,31.96&#10;393.54,33.78&#10;394.41,35.62&#10;395.27,36.85&#10;396.14,37.61&#10;397.01,38.07&#10;397.87,38.5&#10;398.74,38.97&#10;399.61,39.31&#10;400.47,39.47&#10;401.34,39.59&#10;402.21,39.61&#10;403.07,39.62&#10;403.94,39.6&#10;404.81,39.55&#10;405.67,39.45&#10;406.54,39.25&#10;407.41,38.65&#10;408.27,37.95&#10;409.14,38.15&#10;410.01,38.8&#10;410.87,39.11&#10;411.74,39.26&#10;412.61,39.41&#10;413.47,39.56&#10;414.34,39.61&#10;415.21,39.62&#10;416.07,39.64&#10;416.94,39.65&#10;417.81,39.66&#10;418.67,39.66&#10;419.54,39.67&#10;420.41,39.67&#10;421.27,39.67&#10;422.14,39.67&#10;423.01,39.67&#10;423.87,39.67&#10;424.74,39.67&#10;425.61,39.67&#10;426.47,39.67&#10;427.34,39.67&#10;428.21,39.67&#10;429.07,39.67&#10;429.94,39.67&#10;430.81,39.67&#10;431.67,39.67&#10;431.67,39.67"/></g><g id="itemarea157" transform="translate(0 316.54)"><polygon class="main" points="300.81,39.67&#10;300.81,39.67&#10;301.68,39.67&#10;302.54,39.67&#10;303.41,39.67&#10;304.28,39.67&#10;305.14,39.67&#10;306.01,39.67&#10;306.88,39.67&#10;307.74,39.67&#10;308.61,39.67&#10;309.48,39.67&#10;310.34,39.67&#10;311.21,39.67&#10;312.08,39.67&#10;312.94,39.67&#10;313.81,39.66&#10;314.68,39.64&#10;315.54,39.59&#10;316.41,39.56&#10;317.28,39.56&#10;318.14,39.6&#10;319.01,39.65&#10;319.88,39.67&#10;320.74,39.67&#10;321.61,39.67&#10;322.48,39.67&#10;323.34,39.66&#10;324.21,39.65&#10;325.08,39.64&#10;325.94,39.64&#10;326.81,39.65&#10;327.68,39.66&#10;328.54,39.67&#10;329.41,39.67&#10;330.28,39.67&#10;331.14,39.65&#10;332.01,39.62&#10;332.88,39.56&#10;333.74,39.55&#10;334.61,39.57&#10;335.48,39.56&#10;336.34,39.47&#10;337.21,39.23&#10;338.08,38.87&#10;338.94,38.58&#10;339.81,38.48&#10;340.68,38.59&#10;341.54,38.89&#10;342.41,39.18&#10;343.28,39.33&#10;344.14,39.31&#10;345.01,39.11&#10;345.88,38.77&#10;346.74,38.39&#10;347.61,38.24&#10;348.48,38.21&#10;349.34,38.16&#10;350.21,38.02&#10;351.08,37.96&#10;351.94,38.08&#10;352.81,38.36&#10;353.68,38.44&#10;354.54,38.21&#10;355.41,38.12&#10;356.28,38&#10;357.14,37.71&#10;358.01,36.95&#10;358.88,36.07&#10;359.74,35.04&#10;360.61,34.51&#10;361.48,34.48&#10;362.34,34.03&#10;363.21,34.3&#10;364.08,34.39&#10;364.94,34.57&#10;365.81,34.81&#10;366.68,35.32&#10;367.54,35.19&#10;368.41,34.77&#10;369.28,34.57&#10;370.14,35.13&#10;371.01,34.79&#10;371.88,34.16&#10;372.74,33.73&#10;373.61,33.22&#10;374.48,33.13&#10;375.34,33.28&#10;376.21,33.07&#10;377.08,33.02&#10;377.94,32.77&#10;378.81,31.96&#10;379.68,30.7&#10;380.54,29.89&#10;381.41,29.79&#10;382.27,30.09&#10;383.14,30.67&#10;384.01,31.11&#10;384.87,31.17&#10;385.74,30.94&#10;386.61,30.53&#10;387.47,30.06&#10;388.34,29.76&#10;389.21,29.78&#10;390.07,29.87&#10;390.94,30.16&#10;391.81,30.65&#10;392.67,31.24&#10;393.54,31.96&#10;394.41,32.46&#10;395.27,32.65&#10;396.14,32.75&#10;397.01,32.76&#10;397.87,32.73&#10;398.74,32.67&#10;399.61,32.6&#10;400.47,32.56&#10;401.34,32.53&#10;402.21,32.56&#10;403.07,32.57&#10;403.94,32.53&#10;404.81,32.53&#10;405.67,32.56&#10;406.54,32.62&#10;407.41,32.74&#10;408.27,32.77&#10;409.14,32.77&#10;410.01,32.72&#10;410.87,32.66&#10;411.74,32.62&#10;412.61,32.57&#10;413.47,32.52&#10;414.34,32.52&#10;415.21,32.52&#10;416.07,32.53&#10;416.94,32.57&#10;417.81,32.63&#10;418.67,32.65&#10;419.54,32.75&#10;420.41,33.04&#10;421.27,33.49&#10;422.14,33.65&#10;423.01,33.43&#10;423.87,33.19&#10;424.74,33.16&#10;425.61,33.3&#10;426.47,33.51&#10;427.34,33.84&#10;428.21,34.37&#10;429.07,34.85&#10;429.94,35.05&#10;430.81,35.2&#10;431.67,35.5&#10;432.54,35.83&#10;433.41,36.07&#10;434.27,36.05&#10;435.14,35.73&#10;436.01,35.36&#10;436.87,35.26&#10;437.74,35.57&#10;438.61,36.01&#10;439.47,36.27&#10;440.34,35.9&#10;441.21,35.25&#10;442.07,35.04&#10;442.94,35.41&#10;443.81,36.08&#10;444.67,36.75&#10;445.54,37.23&#10;446.41,37.59&#10;447.27,37.89&#10;448.14,37.97&#10;449.01,37.84&#10;449.87,37.67&#10;450.74,37.66&#10;451.61,37.81&#10;452.47,37.96&#10;453.34,37.93&#10;454.21,37.72&#10;455.07,37.6&#10;455.94,37.8&#10;456.81,38.34&#10;457.67,38.86&#10;458.54,39.09&#10;459.41,39.08&#10;460.27,38.92&#10;461.14,38.72&#10;462.01,38.76&#10;462.87,39.09&#10;463.74,39.4&#10;464.61,39.56&#10;465.47,39.61&#10;466.34,39.62&#10;467.21,39.62&#10;468.07,39.63&#10;468.94,39.64&#10;469.81,39.66&#10;470.67,39.66&#10;471.54,39.67&#10;472.41,39.66&#10;473.27,39.66&#10;474.14,39.65&#10;475.01,39.64&#10;475.87,39.63&#10;476.74,39.65&#10;477.61,39.67&#10;478.47,39.67&#10;479.34,39.67&#10;480.21,39.67&#10;481.07,39.67&#10;481.94,39.67&#10;482.81,39.67&#10;483.67,39.67&#10;484.54,39.67&#10;485.41,39.67&#10;486.27,39.67&#10;487.14,39.67&#10;488.01,39.67&#10;488.87,39.67&#10;489.74,39.67&#10;490.6,39.67&#10;491.47,39.67&#10;492.34,39.67&#10;493.2,39.67&#10;494.07,39.67&#10;494.94,39.67&#10;495.8,39.67&#10;496.67,39.67&#10;496.67,39.67"/></g><g id="itemarea201" transform="translate(0 349.22)"><polygon class="main" points="254.88,39.68&#10;254.88,39.68&#10;255.75,39.68&#10;256.61,39.68&#10;257.48,39.68&#10;258.35,39.68&#10;259.21,39.68&#10;260.08,39.68&#10;260.95,39.68&#10;261.81,39.68&#10;262.68,39.68&#10;263.55,39.68&#10;264.41,39.68&#10;265.28,39.68&#10;266.15,39.68&#10;267.01,39.68&#10;267.88,39.68&#10;268.75,39.68&#10;269.61,39.68&#10;270.48,39.68&#10;271.35,39.68&#10;272.21,39.68&#10;273.08,39.68&#10;273.94,39.68&#10;274.81,39.68&#10;275.68,39.68&#10;276.54,39.68&#10;277.41,39.68&#10;278.28,39.68&#10;279.14,39.68&#10;280.01,39.68&#10;280.88,39.68&#10;281.74,39.68&#10;282.61,39.68&#10;283.48,39.68&#10;284.34,39.68&#10;285.21,39.68&#10;286.08,39.68&#10;286.94,39.68&#10;287.81,39.68&#10;288.68,39.68&#10;289.54,39.67&#10;290.41,39.67&#10;291.28,39.67&#10;292.14,39.67&#10;293.01,39.68&#10;293.88,39.68&#10;294.74,39.68&#10;295.61,39.68&#10;296.48,39.67&#10;297.34,39.67&#10;298.21,39.67&#10;299.08,39.67&#10;299.94,39.67&#10;300.81,39.67&#10;301.68,39.67&#10;302.54,39.66&#10;303.41,39.66&#10;304.28,39.66&#10;305.14,39.66&#10;306.01,39.65&#10;306.88,39.65&#10;307.74,39.65&#10;308.61,39.65&#10;309.48,39.65&#10;310.34,39.65&#10;311.21,39.64&#10;312.08,39.63&#10;312.94,39.61&#10;313.81,39.58&#10;314.68,39.54&#10;315.54,39.52&#10;316.41,39.5&#10;317.28,39.5&#10;318.14,39.52&#10;319.01,39.55&#10;319.88,39.59&#10;320.74,39.61&#10;321.61,39.61&#10;322.48,39.59&#10;323.34,39.57&#10;324.21,39.55&#10;325.08,39.55&#10;325.94,39.55&#10;326.81,39.56&#10;327.68,39.57&#10;328.54,39.59&#10;329.41,39.59&#10;330.28,39.59&#10;331.14,39.56&#10;332.01,39.53&#10;332.88,39.5&#10;333.74,39.5&#10;334.61,39.5&#10;335.48,39.5&#10;336.34,39.47&#10;337.21,39.42&#10;338.08,39.36&#10;338.94,39.31&#10;339.81,39.29&#10;340.68,39.31&#10;341.54,39.37&#10;342.41,39.41&#10;343.28,39.44&#10;344.14,39.43&#10;345.01,39.4&#10;345.88,39.35&#10;346.74,39.28&#10;347.61,39.25&#10;348.48,39.24&#10;349.34,39.23&#10;350.21,39.2&#10;351.08,39.18&#10;351.94,39.21&#10;352.81,39.28&#10;353.68,39.29&#10;354.54,39.24&#10;355.41,39.22&#10;356.28,39.19&#10;357.14,39.11&#10;358.01,38.88&#10;358.88,38.57&#10;359.74,38.14&#10;360.61,37.9&#10;361.48,37.89&#10;362.34,37.66&#10;363.21,37.8&#10;364.08,37.84&#10;364.94,37.93&#10;365.81,38.04&#10;366.68,38.27&#10;367.54,38.21&#10;368.41,38.03&#10;369.28,37.93&#10;370.14,38.18&#10;371.01,38.03&#10;371.88,37.73&#10;372.74,37.49&#10;373.61,37.11&#10;374.48,37.02&#10;375.34,37.17&#10;376.21,36.93&#10;377.08,36.87&#10;377.94,36.57&#10;378.81,36.05&#10;379.68,35.69&#10;380.54,35.68&#10;381.41,35.72&#10;382.27,35.69&#10;383.14,35.72&#10;384.01,35.82&#10;384.87,35.82&#10;385.74,35.78&#10;386.61,35.71&#10;387.47,35.68&#10;388.34,35.74&#10;389.21,35.85&#10;390.07,35.94&#10;390.94,36.01&#10;391.81,35.95&#10;392.67,35.75&#10;393.54,35.24&#10;394.41,34.35&#10;395.27,33.42&#10;396.14,32.8&#10;397.01,32.28&#10;397.87,31.66&#10;398.74,30.88&#10;399.61,30.23&#10;400.47,30&#10;401.34,29.88&#10;402.21,30.03&#10;403.07,30.05&#10;403.94,29.85&#10;404.81,29.81&#10;405.67,29.95&#10;406.54,30.36&#10;407.41,31.49&#10;408.27,32.47&#10;409.14,32.22&#10;410.01,31.24&#10;410.87,30.66&#10;411.74,30.34&#10;412.61,30.01&#10;413.47,29.76&#10;414.34,29.79&#10;415.21,29.86&#10;416.07,29.92&#10;416.94,30.15&#10;417.81,30.38&#10;418.67,30.49&#10;419.54,30.86&#10;420.41,31.75&#10;421.27,32.81&#10;422.14,33.14&#10;423.01,32.67&#10;423.87,32.1&#10;424.74,32.04&#10;425.61,32.38&#10;426.47,32.84&#10;427.34,33.49&#10;428.21,34.43&#10;429.07,35.13&#10;429.94,35.4&#10;430.81,35.58&#10;431.67,35.96&#10;432.54,36.34&#10;433.41,36.55&#10;434.27,36.5&#10;435.14,36.21&#10;436.01,35.8&#10;436.87,35.68&#10;437.74,36.07&#10;438.61,36.53&#10;439.47,36.77&#10;440.34,36.44&#10;441.21,35.7&#10;442.07,35.44&#10;442.94,35.89&#10;443.81,36.6&#10;444.67,37.11&#10;445.54,37.36&#10;446.41,37.51&#10;447.27,37.62&#10;448.14,37.64&#10;449.01,37.6&#10;449.87,37.53&#10;450.74,37.52&#10;451.61,37.58&#10;452.47,37.63&#10;453.34,37.62&#10;454.21,37.55&#10;455.07,37.5&#10;455.94,37.58&#10;456.81,37.75&#10;457.67,37.87&#10;458.54,37.93&#10;459.41,37.92&#10;460.27,37.88&#10;461.14,37.84&#10;462.01,37.85&#10;462.87,37.92&#10;463.74,38.03&#10;464.61,38.19&#10;465.47,38.32&#10;466.34,38.36&#10;467.21,38.37&#10;468.07,38.4&#10;468.94,38.5&#10;469.81,38.63&#10;470.67,38.75&#10;471.54,38.82&#10;472.41,38.82&#10;473.27,38.74&#10;474.14,38.6&#10;475.01,38.48&#10;475.87,38.47&#10;476.74,38.57&#10;477.61,38.8&#10;478.47,39.03&#10;479.34,39.2&#10;480.21,39.3&#10;481.07,39.36&#10;481.94,39.44&#10;482.81,39.55&#10;483.67,39.62&#10;484.54,39.65&#10;485.41,39.65&#10;486.27,39.65&#10;487.14,39.63&#10;488.01,39.62&#10;488.87,39.6&#10;489.74,39.6&#10;490.6,39.61&#10;491.47,39.61&#10;492.34,39.62&#10;493.2,39.63&#10;494.07,39.64&#10;494.94,39.66&#10;495.8,39.67&#10;496.67,39.67&#10;497.54,39.68&#10;498.4,39.68&#10;499.27,39.68&#10;500.14,39.68&#10;501,39.68&#10;501.87,39.68&#10;502.74,39.68&#10;503.6,39.68&#10;503.6,39.68"/></g><g id="itemarea233" transform="translate(0 381.9)"><polygon class="main" points="358.88,39.68&#10;358.88,39.68&#10;359.74,39.68&#10;360.61,39.68&#10;361.48,39.68&#10;362.34,39.68&#10;363.21,39.68&#10;364.08,39.68&#10;364.94,39.68&#10;365.81,39.68&#10;366.68,39.68&#10;367.54,39.68&#10;368.41,39.68&#10;369.28,39.68&#10;370.14,39.68&#10;371.01,39.68&#10;371.88,39.68&#10;372.74,39.68&#10;373.61,39.68&#10;374.48,39.68&#10;375.34,39.68&#10;376.21,39.68&#10;377.08,39.68&#10;377.94,39.67&#10;378.81,39.63&#10;379.68,39.46&#10;380.54,39.11&#10;381.41,38.93&#10;382.27,39.17&#10;383.14,39.41&#10;384.01,39.5&#10;384.87,39.52&#10;385.74,39.47&#10;386.61,39.37&#10;387.47,39.19&#10;388.34,38.87&#10;389.21,38.37&#10;390.07,37.86&#10;390.94,37.22&#10;391.81,36.28&#10;392.67,35.05&#10;393.54,33.39&#10;394.41,31.8&#10;395.27,30.82&#10;396.14,30.22&#10;397.01,29.96&#10;397.87,29.93&#10;398.74,30.13&#10;399.61,30.87&#10;400.47,32.05&#10;401.34,33.15&#10;402.21,33.87&#10;403.07,33.95&#10;403.94,33.33&#10;404.81,32.3&#10;405.67,31.38&#10;406.54,30.51&#10;407.41,29.76&#10;408.27,29.96&#10;409.14,29.87&#10;410.01,29.8&#10;410.87,30.08&#10;411.74,30.41&#10;412.61,31.01&#10;413.47,32.28&#10;414.34,33.25&#10;415.21,33.69&#10;416.07,34.14&#10;416.94,34.89&#10;417.81,35.35&#10;418.67,35.56&#10;419.54,36.26&#10;420.41,37.16&#10;421.27,37.45&#10;422.14,37.31&#10;423.01,37.39&#10;423.87,37.28&#10;424.74,37.25&#10;425.61,37.37&#10;426.47,37.38&#10;427.34,37.14&#10;428.21,36.22&#10;429.07,34.94&#10;429.94,34.38&#10;430.81,33.96&#10;431.67,33.16&#10;432.54,32.32&#10;433.41,31.94&#10;434.27,32.12&#10;435.14,32.6&#10;436.01,33.51&#10;436.87,33.79&#10;437.74,32.91&#10;438.61,31.82&#10;439.47,31.33&#10;440.34,31.99&#10;441.21,33.79&#10;442.07,34.43&#10;442.94,33.34&#10;443.81,31.68&#10;444.67,31.16&#10;445.54,31.55&#10;446.41,32.18&#10;447.27,32.95&#10;448.14,33.2&#10;449.01,32.81&#10;449.87,32.48&#10;450.74,32.52&#10;451.61,32.79&#10;452.47,33.18&#10;453.34,33.1&#10;454.21,32.6&#10;455.07,32.33&#10;455.94,32.78&#10;456.81,34.25&#10;457.67,36.09&#10;458.54,37&#10;459.41,36.95&#10;460.27,36.31&#10;461.14,35.58&#10;462.01,35.71&#10;462.87,36.95&#10;463.74,38.31&#10;464.61,39.05&#10;465.47,39.31&#10;466.34,39.36&#10;467.21,39.34&#10;468.07,39.41&#10;468.94,39.49&#10;469.81,39.56&#10;470.67,39.61&#10;471.54,39.62&#10;472.41,39.62&#10;473.27,39.6&#10;474.14,39.55&#10;475.01,39.47&#10;475.87,39.45&#10;476.74,39.54&#10;477.61,39.62&#10;478.47,39.65&#10;479.34,39.67&#10;480.21,39.67&#10;481.07,39.68&#10;481.94,39.68&#10;482.81,39.68&#10;483.67,39.68&#10;484.54,39.68&#10;485.41,39.68&#10;486.27,39.68&#10;487.14,39.68&#10;488.01,39.68&#10;488.87,39.68&#10;489.74,39.68&#10;490.6,39.68&#10;491.47,39.68&#10;492.34,39.68&#10;493.2,39.68&#10;494.07,39.68&#10;494.94,39.68&#10;495.8,39.68&#10;495.8,39.68"/></g></g></g><g id="textarea" transform="translate(19.16 19.16)"><g id="itemarea1" transform="translate(0 -10.27)"><text transform="translate(0 4.33)" style="font-size:10.834044375495154pt" x="9.77" y="39.68">Sum Janowice</text></g><g id="itemarea8" transform="translate(0 22.41)"><text transform="translate(0 4.33)" style="font-size:10.834044375495154pt" x="9.77" y="39.68">Sum Krotoszyn</text></g><g id="itemarea11" transform="translate(0 55.1)"><text transform="translate(0 4.33)" style="font-size:10.834044375495154pt" x="9.77" y="39.67">Sum Bruszczewo</text></g><g id="itemarea114" transform="translate(0 87.78)"><text transform="translate(0 4.33)" style="font-size:10.834044375495154pt" x="9.77" y="39.67">Sum Lutomiersk-Koziwki, stan. 3 a-c</text></g><g id="itemarea131" transform="translate(0 120.46)"><text transform="translate(0 4.33)" style="font-size:10.834044375495154pt" x="9.77" y="39.67">Sum Niedary</text></g><g id="itemarea133" transform="translate(0 153.14)"><text transform="translate(0 4.33)" style="font-size:10.834044375495154pt" x="9.77" y="39.67">Sum Pudliszki</text></g><g id="itemarea136" transform="translate(0 185.82)"><text transform="translate(0 4.33)" style="font-size:10.834044375495154pt" x="9.77" y="39.67">Sum Grzyca</text></g><g id="itemarea151" transform="translate(0 218.5)"><text transform="translate(0 4.33)" style="font-size:10.834044375495154pt" x="9.77" y="39.67">Sum Czelad Wielka</text></g><g id="itemarea153" transform="translate(0 251.18)"><text transform="translate(0 4.33)" style="font-size:10.834044375495154pt" x="9.77" y="39.67">Sum Las Krotoszyn</text></g><g id="itemarea155" transform="translate(0 283.86)"><text transform="translate(0 4.33)" style="font-size:10.834044375495154pt" x="9.77" y="39.67">Sum Cichmiany 2</text></g><g id="itemarea157" transform="translate(0 316.54)"><text transform="translate(0 4.33)" style="font-size:10.834044375495154pt" x="9.77" y="39.67">Sum Polesie</text></g><g id="itemarea201" transform="translate(0 349.22)"><text transform="translate(0 4.33)" style="font-size:10.834044375495154pt" x="9.77" y="39.68">Sum Szczepido</text></g><g id="itemarea233" transform="translate(0 381.9)"><text transform="translate(0 4.33)" style="font-size:10.834044375495154pt" x="9.77" y="39.68">Sum Krgola</text></g></g><rect class="border" x="19.16" width="651.54" y="19.16" height="450.99"/><g><line class="majorpip" x1="19.16" y1="470.15" x2="670.7" y2="470.15"/><line class="minorpip" x1="25.4" y1="470.15" x2="25.4" y2="466.32"/><line class="minorpip" x1="34.07" y1="470.15" x2="34.07" y2="466.32"/><line class="minorpip" x1="42.73" y1="470.15" x2="42.73" y2="466.32"/><line class="minorpip" x1="51.4" y1="470.15" x2="51.4" y2="466.32"/><line class="minorpip" x1="60.07" y1="470.15" x2="60.07" y2="466.32"/><line class="minorpip" x1="68.73" y1="470.15" x2="68.73" y2="466.32"/><line class="minorpip" x1="77.4" y1="470.15" x2="77.4" y2="466.32"/><line class="minorpip" x1="86.06" y1="470.15" x2="86.06" y2="466.32"/><line class="minorpip" x1="94.73" y1="470.15" x2="94.73" y2="466.32"/><line class="minorpip" x1="103.4" y1="470.15" x2="103.4" y2="466.32"/><line class="minorpip" x1="112.06" y1="470.15" x2="112.06" y2="466.32"/><line class="minorpip" x1="120.73" y1="470.15" x2="120.73" y2="466.32"/><line class="minorpip" x1="129.4" y1="470.15" x2="129.4" y2="466.32"/><line class="minorpip" x1="138.06" y1="470.15" x2="138.06" y2="466.32"/><line class="minorpip" x1="146.73" y1="470.15" x2="146.73" y2="466.32"/><line class="minorpip" x1="155.4" y1="470.15" x2="155.4" y2="466.32"/><line class="minorpip" x1="164.06" y1="470.15" x2="164.06" y2="466.32"/><line class="minorpip" x1="172.73" y1="470.15" x2="172.73" y2="466.32"/><line class="minorpip" x1="181.4" y1="470.15" x2="181.4" y2="466.32"/><line class="minorpip" x1="190.06" y1="470.15" x2="190.06" y2="466.32"/><line class="minorpip" x1="198.73" y1="470.15" x2="198.73" y2="466.32"/><line class="minorpip" x1="207.39" y1="470.15" x2="207.39" y2="466.32"/><line class="minorpip" x1="216.06" y1="470.15" x2="216.06" y2="466.32"/><line class="minorpip" x1="224.73" y1="470.15" x2="224.73" y2="466.32"/><line class="minorpip" x1="233.39" y1="470.15" x2="233.39" y2="466.32"/><line class="minorpip" x1="242.06" y1="470.15" x2="242.06" y2="466.32"/><line class="minorpip" x1="250.73" y1="470.15" x2="250.73" y2="466.32"/><line class="minorpip" x1="259.39" y1="470.15" x2="259.39" y2="466.32"/><line class="minorpip" x1="268.06" y1="470.15" x2="268.06" y2="466.32"/><line class="minorpip" x1="276.73" y1="470.15" x2="276.73" y2="466.32"/><line class="minorpip" x1="285.39" y1="470.15" x2="285.39" y2="466.32"/><line class="minorpip" x1="294.06" y1="470.15" x2="294.06" y2="466.32"/><line class="minorpip" x1="302.72" y1="470.15" x2="302.72" y2="466.32"/><line class="minorpip" x1="311.39" y1="470.15" x2="311.39" y2="466.32"/><line class="minorpip" x1="320.06" y1="470.15" x2="320.06" y2="466.32"/><line class="minorpip" x1="328.72" y1="470.15" x2="328.72" y2="466.32"/><line class="minorpip" x1="337.39" y1="470.15" x2="337.39" y2="466.32"/><line class="minorpip" x1="346.06" y1="470.15" x2="346.06" y2="466.32"/><line class="minorpip" x1="354.72" y1="470.15" x2="354.72" y2="466.32"/><line class="minorpip" x1="363.39" y1="470.15" x2="363.39" y2="466.32"/><line class="minorpip" x1="372.06" y1="470.15" x2="372.06" y2="466.32"/><line class="minorpip" x1="380.72" y1="470.15" x2="380.72" y2="466.32"/><line class="minorpip" x1="389.39" y1="470.15" x2="389.39" y2="466.32"/><line class="minorpip" x1="398.06" y1="470.15" x2="398.06" y2="466.32"/><line class="minorpip" x1="406.72" y1="470.15" x2="406.72" y2="466.32"/><line class="minorpip" x1="415.39" y1="470.15" x2="415.39" y2="466.32"/><line class="minorpip" x1="424.05" y1="470.15" x2="424.05" y2="466.32"/><line class="minorpip" x1="432.72" y1="470.15" x2="432.72" y2="466.32"/><line class="minorpip" x1="441.39" y1="470.15" x2="441.39" y2="466.32"/><line class="minorpip" x1="450.05" y1="470.15" x2="450.05" y2="466.32"/><line class="minorpip" x1="458.72" y1="470.15" x2="458.72" y2="466.32"/><line class="minorpip" x1="467.39" y1="470.15" x2="467.39" y2="466.32"/><line class="minorpip" x1="476.05" y1="470.15" x2="476.05" y2="466.32"/><line class="minorpip" x1="484.72" y1="470.15" x2="484.72" y2="466.32"/><line class="minorpip" x1="493.39" y1="470.15" x2="493.39" y2="466.32"/><line class="minorpip" x1="502.05" y1="470.15" x2="502.05" y2="466.32"/><line class="minorpip" x1="510.72" y1="470.15" x2="510.72" y2="466.32"/><line class="minorpip" x1="519.38" y1="470.15" x2="519.38" y2="466.32"/><line class="minorpip" x1="528.05" y1="470.15" x2="528.05" y2="466.32"/><line class="minorpip" x1="536.72" y1="470.15" x2="536.72" y2="466.32"/><line class="minorpip" x1="545.38" y1="470.15" x2="545.38" y2="466.32"/><line class="minorpip" x1="554.05" y1="470.15" x2="554.05" y2="466.32"/><line class="minorpip" x1="562.72" y1="470.15" x2="562.72" y2="466.32"/><line class="minorpip" x1="571.38" y1="470.15" x2="571.38" y2="466.32"/><line class="minorpip" x1="580.05" y1="470.15" x2="580.05" y2="466.32"/><line class="minorpip" x1="588.72" y1="470.15" x2="588.72" y2="466.32"/><line class="minorpip" x1="597.38" y1="470.15" x2="597.38" y2="466.32"/><line class="minorpip" x1="606.05" y1="470.15" x2="606.05" y2="466.32"/><line class="minorpip" x1="614.72" y1="470.15" x2="614.72" y2="466.32"/><line class="minorpip" x1="623.38" y1="470.15" x2="623.38" y2="466.32"/><line class="minorpip" x1="632.05" y1="470.15" x2="632.05" y2="466.32"/><line class="minorpip" x1="640.71" y1="470.15" x2="640.71" y2="466.32"/><line class="minorpip" x1="649.38" y1="470.15" x2="649.38" y2="466.32"/><line class="minorpip" x1="658.05" y1="470.15" x2="658.05" y2="466.32"/><line class="minorpip" x1="666.71" y1="470.15" x2="666.71" y2="466.32"/><line class="majorpip" x1="51.4" y1="470.15" x2="51.4" y2="462.48"/><text transform="translate(0 12.57)" style="font-size:10.834044375495154pt;text-anchor:middle" x="51.4" y="470.15">3500</text><line class="majorpip" x1="138.06" y1="470.15" x2="138.06" y2="462.48"/><text transform="translate(0 12.57)" style="font-size:10.834044375495154pt;text-anchor:middle" x="138.06" y="470.15">3000</text><line class="majorpip" x1="224.73" y1="470.15" x2="224.73" y2="462.48"/><text transform="translate(0 12.57)" style="font-size:10.834044375495154pt;text-anchor:middle" x="224.73" y="470.15">2500</text><line class="majorpip" x1="311.39" y1="470.15" x2="311.39" y2="462.48"/><text transform="translate(0 12.57)" style="font-size:10.834044375495154pt;text-anchor:middle" x="311.39" y="470.15">2000</text><line class="majorpip" x1="398.06" y1="470.15" x2="398.06" y2="462.48"/><text transform="translate(0 12.57)" style="font-size:10.834044375495154pt;text-anchor:middle" x="398.06" y="470.15">1500</text><line class="majorpip" x1="484.72" y1="470.15" x2="484.72" y2="462.48"/><text transform="translate(0 12.57)" style="font-size:10.834044375495154pt;text-anchor:middle" x="484.72" y="470.15">1000</text><line class="majorpip" x1="571.38" y1="470.15" x2="571.38" y2="462.48"/><text transform="translate(0 12.57)" style="font-size:10.834044375495154pt;text-anchor:middle" x="571.38" y="470.15">500</text><line class="majorpip" x1="658.05" y1="470.15" x2="658.05" y2="462.48"/><text transform="translate(0 12.57)" style="font-size:10.834044375495154pt;text-anchor:middle" x="658.05" y="470.15">1calBC/1calAD</text><text transform="translate(0 4.33)" style="font-size:10.834044375495154pt;text-anchor:middle" x="344.93" y="508.48">Calibrated date (calBC/calAD)</text></g><g id="references" transform="translate(0 0)"><text transform="translate(0 -1.56)" style="font-size:6.5004266252970915pt" x="19.16" y="19.16">OxCal v4.4.4 Bronk Ramsey (2021); r:5 Atmospheric data from Reimer et al (2020)</text></g></g></g>
</svg>